<svg width="157" height="26" viewBox="0 0 157 26" fill="none" xmlns="http://www.w3.org/2000/svg">
<g clip-path="url(#clip0_1039_7016)">
<path d="M112.906 0C111.448 0 110.146 0.936 109.677 2.34L102.125 25.48H109.26L116.135 4.42C116.812 2.236 115.198 0 112.906 0Z" fill="white"/>
<path d="M63.5838 0.519531H41.2922L39.2609 6.75953H54.8859L34.7297 20.2795C33.1672 21.3195 32.9068 23.4515 34.1047 24.8555C35.1463 26.1035 36.9172 26.3115 38.2713 25.4275L58.5838 11.8035L54.1047 25.4795H61.2401L67.5943 5.97953C68.4276 3.27553 66.4484 0.519531 63.5838 0.519531Z" fill="#00C7B1"/>
<path d="M8.78906 0.519531L0.664062 25.4795H7.79948L13.8932 6.75953H28.4245L18.5286 13.4155C17.0703 14.4035 16.6016 16.3275 17.5911 17.7835C18.5807 19.2395 20.5078 19.6035 21.9661 18.6675L34.3099 10.3475C38.6849 7.38353 36.6016 0.519531 31.2891 0.519531H8.78906Z" fill="white"/>
<path d="M98.4766 0.519531H76.0286L67.8516 25.4795H74.987L81.0807 6.75953H95.612L82.7474 15.4435L90.7161 24.9075C91.7578 26.1555 93.5286 26.3635 94.8828 25.4795C96.4453 24.4395 96.7057 22.3075 95.5078 20.9035L92.0182 16.7435L101.497 10.3995C105.872 7.38353 103.789 0.519531 98.4766 0.519531Z" fill="white"/>
<path d="M120.809 11L122.499 0.818182H126.894C127.65 0.818182 128.286 0.967329 128.803 1.26562C129.32 1.56392 129.692 1.98319 129.917 2.52344C130.142 3.06368 130.195 3.69508 130.076 4.41761C129.957 5.15341 129.692 5.78812 129.281 6.32173C128.873 6.85204 128.353 7.26136 127.719 7.54972C127.09 7.83475 126.384 7.97727 125.602 7.97727H122.977L123.335 5.82955H125.403C125.734 5.82955 126.026 5.7732 126.278 5.66051C126.53 5.54451 126.733 5.3821 126.889 5.1733C127.045 4.96117 127.146 4.70928 127.192 4.41761C127.239 4.12595 127.217 3.87737 127.128 3.67188C127.042 3.46307 126.893 3.30398 126.68 3.1946C126.472 3.08191 126.205 3.02557 125.88 3.02557H124.906L123.573 11H120.809ZM129.996 11L131.687 0.818182H136.082C136.837 0.818182 137.475 0.955729 137.996 1.23082C138.516 1.50592 138.891 1.90199 139.119 2.41903C139.348 2.93608 139.403 3.55587 139.283 4.27841C139.164 5.00758 138.901 5.6224 138.493 6.12287C138.089 6.62003 137.573 6.99787 136.947 7.25639C136.324 7.5116 135.624 7.6392 134.849 7.6392H132.224L132.582 5.49148H134.65C134.975 5.49148 135.26 5.4517 135.505 5.37216C135.75 5.2893 135.949 5.16004 136.102 4.98438C136.254 4.8054 136.353 4.57008 136.4 4.27841C136.446 3.98674 136.423 3.74976 136.33 3.56747C136.237 3.38187 136.083 3.24598 135.868 3.1598C135.652 3.07031 135.386 3.02557 135.067 3.02557H134.093L132.761 11H129.996ZM136.738 6.3267L138.508 11H135.505L133.795 6.3267H136.738ZM150.164 6.08807C149.978 7.19508 149.61 8.12311 149.06 8.87216C148.51 9.62121 147.842 10.1863 147.056 10.5675C146.271 10.9486 145.431 11.1392 144.536 11.1392C143.581 11.1392 142.753 10.9321 142.05 10.5178C141.347 10.1035 140.835 9.49692 140.514 8.69815C140.192 7.89938 140.128 6.9233 140.32 5.76989C140.499 4.66288 140.864 3.73153 141.414 2.97585C141.964 2.22017 142.635 1.64844 143.427 1.26065C144.219 0.872869 145.066 0.678977 145.968 0.678977C146.916 0.678977 147.739 0.887784 148.439 1.3054C149.141 1.72301 149.652 2.33452 149.97 3.13991C150.291 3.94531 150.356 4.92803 150.164 6.08807ZM147.38 5.76989C147.472 5.18655 147.479 4.69602 147.4 4.2983C147.32 3.89725 147.153 3.59564 146.897 3.39347C146.642 3.18797 146.299 3.08523 145.868 3.08523C145.378 3.08523 144.944 3.20455 144.566 3.44318C144.188 3.68182 143.875 4.02486 143.626 4.4723C143.377 4.91974 143.203 5.45833 143.104 6.08807C142.998 6.67803 142.988 7.16856 143.074 7.55966C143.164 7.95076 143.339 8.24408 143.601 8.43963C143.866 8.63518 144.211 8.73295 144.635 8.73295C145.119 8.73295 145.547 8.61695 145.918 8.38494C146.292 8.15294 146.602 7.81652 146.848 7.37571C147.096 6.9349 147.274 6.39962 147.38 5.76989Z" fill="#00C7B1"/>
<path d="M117.054 18.0455L117.432 15.8182H126.281L125.903 18.0455H122.841L121.528 26H118.804L120.116 18.0455H117.054ZM135.832 21.0881C135.646 22.1951 135.278 23.1231 134.728 23.8722C134.178 24.6212 133.51 25.1863 132.724 25.5675C131.939 25.9486 131.099 26.1392 130.204 26.1392C129.249 26.1392 128.421 25.9321 127.718 25.5178C127.015 25.1035 126.503 24.4969 126.182 23.6982C125.86 22.8994 125.796 21.9233 125.988 20.7699C126.167 19.6629 126.531 18.7315 127.082 17.9759C127.632 17.2202 128.303 16.6484 129.095 16.2607C129.887 15.8729 130.734 15.679 131.636 15.679C132.584 15.679 133.407 15.8878 134.107 16.3054C134.809 16.723 135.32 17.3345 135.638 18.1399C135.959 18.9453 136.024 19.928 135.832 21.0881ZM133.048 20.7699C133.14 20.1866 133.147 19.696 133.067 19.2983C132.988 18.8973 132.821 18.5956 132.565 18.3935C132.31 18.188 131.967 18.0852 131.536 18.0852C131.046 18.0852 130.612 18.2045 130.234 18.4432C129.856 18.6818 129.543 19.0249 129.294 19.4723C129.045 19.9197 128.871 20.4583 128.772 21.0881C128.666 21.678 128.656 22.1686 128.742 22.5597C128.832 22.9508 129.007 23.2441 129.269 23.4396C129.534 23.6352 129.879 23.733 130.303 23.733C130.787 23.733 131.215 23.617 131.586 23.3849C131.96 23.1529 132.27 22.8165 132.516 22.3757C132.764 21.9349 132.942 21.3996 133.048 20.7699ZM144.011 15.8182H146.775L145.692 22.3409C145.566 23.1165 145.271 23.7876 144.807 24.3544C144.346 24.9179 143.759 25.3537 143.047 25.6619C142.334 25.9669 141.542 26.1193 140.67 26.1193C139.792 26.1193 139.05 25.9669 138.443 25.6619C137.836 25.3537 137.396 24.9179 137.121 24.3544C136.849 23.7876 136.776 23.1165 136.902 22.3409L137.986 15.8182H140.75L139.706 22.1023C139.656 22.4171 139.681 22.6972 139.78 22.9425C139.88 23.1877 140.041 23.3816 140.263 23.5241C140.485 23.6634 140.753 23.733 141.068 23.733C141.386 23.733 141.68 23.6634 141.948 23.5241C142.22 23.3816 142.445 23.1877 142.624 22.9425C142.803 22.6972 142.917 22.4171 142.967 22.1023L144.011 15.8182ZM146.399 26L148.089 15.8182H152.484C153.24 15.8182 153.878 15.9557 154.398 16.2308C154.918 16.5059 155.293 16.902 155.522 17.419C155.75 17.9361 155.805 18.5559 155.686 19.2784C155.566 20.0076 155.303 20.6224 154.895 21.1229C154.491 21.62 153.975 21.9979 153.349 22.2564C152.726 22.5116 152.027 22.6392 151.251 22.6392H148.626L148.984 20.4915H151.052C151.377 20.4915 151.662 20.4517 151.907 20.3722C152.153 20.2893 152.351 20.16 152.504 19.9844C152.656 19.8054 152.756 19.5701 152.802 19.2784C152.849 18.9867 152.825 18.7498 152.733 18.5675C152.64 18.3819 152.486 18.246 152.27 18.1598C152.055 18.0703 151.788 18.0256 151.47 18.0256H150.495L149.163 26H146.399ZM153.14 21.3267L154.91 26H151.907L150.197 21.3267H153.14Z" fill="white"/>
</g>
<defs>
<clipPath id="clip0_1039_7016">
<rect width="157" height="26" fill="white"/>
</clipPath>
</defs>
</svg>
